HIERARCHY
ROOT Hips
{
	OFFSET -14.64140 90.27770 -84.91600
	CHANNELS 6 Xposition Yposition Zposition Zrotation Xrotation Yrotation
	JOINT Spine
	{
		OFFSET 0.00000 13.20850 -1.60440
		CHANNELS 3 Zrotation Xrotation Yrotation
		JOINT Spine1
		{
			OFFSET 0.00000 8.61720 0.00000
			CHANNELS 3 Zrotation Xrotation Yrotation
			JOINT Spine2
			{
				OFFSET 0.00000 8.61720 0.00000
				CHANNELS 3 Zrotation Xrotation Yrotation
				JOINT Spine3
				{
					OFFSET 0.00000 8.61720 0.00000
					CHANNELS 3 Zrotation Xrotation Yrotation
					JOINT Neck
					{
						OFFSET 0.00000 11.07920 1.10790
						CHANNELS 3 Zrotation Xrotation Yrotation
						JOINT Neck1
						{
							OFFSET 0.00000 7.08030 0.00000
							CHANNELS 3 Zrotation Xrotation Yrotation
							JOINT Head
							{
								OFFSET 0.00000 7.08030 0.00000
								CHANNELS 3 Zrotation Xrotation Yrotation
								End site
								{
									OFFSET 0.00000 0.00000 0.00000
								}
							}
						}
					}
					JOINT RightShoulder
					{
						OFFSET -0.01000 7.91370 5.19710
						CHANNELS 3 Zrotation Xrotation Yrotation
						JOINT RightArm
						{
							OFFSET -18.41580 0.00000 0.00000
							CHANNELS 3 Zrotation Xrotation Yrotation
							JOINT RightForeArm
							{
								OFFSET -29.11090 0.00000 0.00000
								CHANNELS 3 Zrotation Xrotation Yrotation
								JOINT RightHand
								{
									OFFSET -24.65040 0.00000 0.00000
									CHANNELS 3 Zrotation Xrotation Yrotation
									JOINT RightHandThumb1
									{
										OFFSET -5.35110 -0.85590 3.97910
										CHANNELS 3 Zrotation Xrotation Yrotation
										JOINT RightHandThumb2
										{
											OFFSET -4.52790 0.00000 0.00000
											CHANNELS 3 Zrotation Xrotation Yrotation
											JOINT RightHandThumb3
											{
												OFFSET -2.46980 0.00000 0.00000
												CHANNELS 3 Zrotation Xrotation Yrotation
												End site
												{
													OFFSET 0.00000 0.00000 0.00000
												}
											}
										}
									}
									JOINT RightHandIndex1
									{
										OFFSET -14.26970 0.00000 2.88140
										CHANNELS 3 Zrotation Xrotation Yrotation
										JOINT RightHandIndex2
										{
											OFFSET -5.48840 0.00000 0.00000
											CHANNELS 3 Zrotation Xrotation Yrotation
											JOINT RightHandIndex3
											{
												OFFSET -3.01860 0.00000 0.00000
												CHANNELS 3 Zrotation Xrotation Yrotation
												End site
												{
													OFFSET 0.00000 0.00000 0.00000
												}
											}
										}
									}
									JOINT RightHandMiddle1
									{
										OFFSET -14.26970 0.00000 -0.09150
										CHANNELS 3 Zrotation Xrotation Yrotation
										JOINT RightHandMiddle2
										{
											OFFSET -6.17440 0.00000 0.00000
											CHANNELS 3 Zrotation Xrotation Yrotation
											JOINT RightHandMiddle3
											{
												OFFSET -3.56740 0.00000 0.00000
												CHANNELS 3 Zrotation Xrotation Yrotation
												End site
												{
													OFFSET 0.00000 0.00000 0.00000
												}
											}
										}
									}
									JOINT RightHandRing1
									{
										OFFSET -12.69180 0.00000 -3.06430
										CHANNELS 3 Zrotation Xrotation Yrotation
										JOINT RightHandRing2
										{
											OFFSET -5.62560 0.00000 0.00000
											CHANNELS 3 Zrotation Xrotation Yrotation
											JOINT RightHandRing3
											{
												OFFSET -3.56740 0.00000 0.00000
												CHANNELS 3 Zrotation Xrotation Yrotation
												End site
												{
													OFFSET 0.00000 0.00000 0.00000
												}
											}
										}
									}
									JOINT RightHandPinky1
									{
										OFFSET -11.11390 0.00000 -6.03720
										CHANNELS 3 Zrotation Xrotation Yrotation
										JOINT RightHandPinky2
										{
											OFFSET -4.52790 0.00000 0.00000
											CHANNELS 3 Zrotation Xrotation Yrotation
											JOINT RightHandPinky3
											{
												OFFSET -2.46980 0.00000 0.00000
												CHANNELS 3 Zrotation Xrotation Yrotation
												End site
												{
													OFFSET 0.00000 0.00000 0.00000
												}
											}
										}
									}
								}
							}
						}
					}
					JOINT LeftShoulder
					{
						OFFSET 0.01000 7.91370 5.19710
						CHANNELS 3 Zrotation Xrotation Yrotation
						JOINT LeftArm
						{
							OFFSET 18.41580 0.00000 0.00000
							CHANNELS 3 Zrotation Xrotation Yrotation
							JOINT LeftForeArm
							{
								OFFSET 29.11090 0.00000 0.00000
								CHANNELS 3 Zrotation Xrotation Yrotation
								JOINT LeftHand
								{
									OFFSET 24.65040 0.00000 0.00000
									CHANNELS 3 Zrotation Xrotation Yrotation
									JOINT LeftHandThumb1
									{
										OFFSET 5.35110 -0.85590 3.97910
										CHANNELS 3 Zrotation Xrotation Yrotation
										JOINT LeftHandThumb2
										{
											OFFSET 4.52790 0.00000 0.00000
											CHANNELS 3 Zrotation Xrotation Yrotation
											JOINT LeftHandThumb3
											{
												OFFSET 2.46980 0.00000 0.00000
												CHANNELS 3 Zrotation Xrotation Yrotation
												End site
												{
													OFFSET 0.00000 0.00000 0.00000
												}
											}
										}
									}
									JOINT LeftHandIndex1
									{
										OFFSET 14.26970 0.00000 2.88140
										CHANNELS 3 Zrotation Xrotation Yrotation
										JOINT LeftHandIndex2
										{
											OFFSET 5.48840 0.00000 0.00000
											CHANNELS 3 Zrotation Xrotation Yrotation
											JOINT LeftHandIndex3
											{
												OFFSET 3.01860 0.00000 0.00000
												CHANNELS 3 Zrotation Xrotation Yrotation
												End site
												{
													OFFSET 0.00000 0.00000 0.00000
												}
											}
										}
									}
									JOINT LeftHandMiddle1
									{
										OFFSET 14.26970 0.00000 -0.09150
										CHANNELS 3 Zrotation Xrotation Yrotation
										JOINT LeftHandMiddle2
										{
											OFFSET 6.17440 0.00000 0.00000
											CHANNELS 3 Zrotation Xrotation Yrotation
											JOINT LeftHandMiddle3
											{
												OFFSET 3.56740 0.00000 0.00000
												CHANNELS 3 Zrotation Xrotation Yrotation
												End site
												{
													OFFSET 0.00000 0.00000 0.00000
												}
											}
										}
									}
									JOINT LeftHandRing1
									{
										OFFSET 12.69180 0.00000 -3.06430
										CHANNELS 3 Zrotation Xrotation Yrotation
										JOINT LeftHandRing2
										{
											OFFSET 5.62560 0.00000 0.00000
											CHANNELS 3 Zrotation Xrotation Yrotation
											JOINT LeftHandRing3
											{
												OFFSET 3.56740 0.00000 0.00000
												CHANNELS 3 Zrotation Xrotation Yrotation
												End site
												{
													OFFSET 0.00000 0.00000 0.00000
												}
											}
										}
									}
									JOINT LeftHandPinky1
									{
										OFFSET 11.11390 0.00000 -6.03720
										CHANNELS 3 Zrotation Xrotation Yrotation
										JOINT LeftHandPinky2
										{
											OFFSET 4.52790 0.00000 0.00000
											CHANNELS 3 Zrotation Xrotation Yrotation
											JOINT LeftHandPinky3
											{
												OFFSET 2.46980 0.00000 0.00000
												CHANNELS 3 Zrotation Xrotation Yrotation
												End site
												{
													OFFSET 0.00000 0.00000 0.00000
												}
											}
										}
									}
								}
							}
						}
					}
					JOINT pCube4
					{
						OFFSET 0.00000 10.91090 1.10790
						CHANNELS 3 Zrotation Xrotation Yrotation
						End site
						{
							OFFSET 0.00000 0.00000 0.00000
						}
					}
				}
			}
		}
	}
	JOINT RightUpLeg
	{
		OFFSET -9.98440 0.00000 0.00000
		CHANNELS 3 Zrotation Xrotation Yrotation
		JOINT RightLeg
		{
			OFFSET 0.00000 -42.11790 0.00000
			CHANNELS 3 Zrotation Xrotation Yrotation
			JOINT RightFoot
			{
				OFFSET 0.00000 -45.00020 -0.00000
				CHANNELS 3 Zrotation Xrotation Yrotation
				JOINT RightForeFoot
				{
					OFFSET 0.00000 -3.74820 0.00000
					CHANNELS 3 Zrotation Xrotation Yrotation
					JOINT RightToeBase
					{
						OFFSET 0.00000 0.06320 14.43120
						CHANNELS 3 Zrotation Xrotation Yrotation
						End site
						{
							OFFSET 0.00000 0.00000 0.00000
						}
					}
				}
			}
		}
	}
	JOINT LeftUpLeg
	{
		OFFSET 9.98440 0.00000 0.00000
		CHANNELS 3 Zrotation Xrotation Yrotation
		JOINT LeftLeg
		{
			OFFSET 0.00000 -42.11800 0.00000
			CHANNELS 3 Zrotation Xrotation Yrotation
			JOINT LeftFoot
			{
				OFFSET 0.00000 -45.00070 0.00000
				CHANNELS 3 Zrotation Xrotation Yrotation
				JOINT LeftForeFoot
				{
					OFFSET 0.00000 -3.74820 0.00000
					CHANNELS 3 Zrotation Xrotation Yrotation
					JOINT LeftToeBase
					{
						OFFSET 0.00000 0.06330 14.43110
						CHANNELS 3 Zrotation Xrotation Yrotation
						End site
						{
							OFFSET 0.00000 0.00000 0.00000
						}
					}
				}
			}
		}
	}
}
MOTION
Frames: 6
Frame Time: 0.050000
0.0 0.0 0.0 -0.0 0.0 -0.0 -5.551420573583817 7.823316309668687 0.015978625698127687 -0.8027391505816305 2.9369797105569453 0.4129031025489288 -1.0577406238369071 0.04892282944410484 -1.2536386748646438 -0.4514977487221645 0.4387937207969405 -1.2979386808215074 -0.773803427028941 8.604292816412588 1.2423846389381779 -0.275016645241364 -0.5931670647101955 -1.930132918079562 -0.5186709850313646 -14.153305455634397 -0.10693253544796016 4.086666737058545 -0.6028623789719897 -9.460731615727596 49.57298087321605 -1.4331403933619207 33.69340117943122 6.1978742271808205 0.6641649975877578 91.71239717876117 21.407305496664538 0.35031218356823324 -7.232370987669262 0.6662 0.2057 17.0925 -0.0 0.0 -33.8039 0.0 -0.0 -33.8039 -34.8611 0.0 -0.0 -0.0 -0.0 -0.0 -0.0 -0.0 -0.0 -39.5292 -0.0 -0.0 0.0001 -0.0 -0.0 0.0 -0.0 -0.0 -39.836 0.0 -0.0 -0.0 0.0 0.0 -0.0 0.0 0.0 -51.5202 0.0 -0.0 0.0 0.0 -0.0 -0.0 0.0 -0.0 -0.9638250653020821 -0.05807450493626375 9.36433538091852 -49.44379539742916 10.360123208484822 -34.61579149005841 -16.236927635314473 -0.4233226517154519 -92.59489795160272 -15.067854523535997 0.34606389494617035 -0.012367937767033587 -11.4004 0.4367 -2.1684 -0.0 0.0 51.662 -0.0 0.0 51.662 51.1458 -0.0 -0.0 0.0 -0.0 0.0 -0.0 -0.0 -0.0 54.7253 -0.0 -0.0 0.0 -0.0 0.0 0.0 -0.0 0.0 52.0182 -0.0 -0.0 -0.0 0.0 0.0 0.0 -0.0 0.0 53.1081 0.0 -0.0 -0.0 0.0 -0.0 -0.0 0.0 -0.0 -0.0 -0.0 0.0 -10.7723 -22.4021 0.7241 0.0 71.1458 0.0011 6.4424 -4.2818 -1.0868 0.0 -0.0 0.0 -0.0 -3.537 0.0 -5.7053 -14.9258 11.3918 0.0001 32.3095 -0.0187 4.7164 -11.0815 7.5774 0.0 -0.0 0.0 -0.0 -7.085 0.0
0.0 0.0 0.0 -0.0 0.0 -0.0 -5.683179498143506 7.550441534925543 -0.01402116796410617 -0.7424425334551055 3.0395507891542755 0.40136660648165756 -1.0533174133321188 -0.19630067361609113 -1.4537768886528686 -0.796770320670052 0.07828598835714096 -1.280970134222528 -1.0292167993649504 10.584851541323882 1.7326456013155331 -0.2023041694496265 -0.40269512400425084 0.06951722016479031 -0.5842151312159676 -14.184847707267311 0.0425304883269407 0.6037413255428535 0.05490722334473588 -9.499872705423444 49.00297648707017 -17.2223891222452 49.99274303784435 0.8574603514738154 1.3884837350677222 102.64347601318768 25.672380655226718 0.43812657186059323 -7.095631331776693 0.6662 0.2057 17.0925 -0.0 0.0 -33.8039 0.0 -0.0 -33.8039 -34.8611 0.0 -0.0 -0.0 -0.0 -0.0 -0.0 -0.0 -0.0 -39.5292 -0.0 -0.0 0.0001 -0.0 -0.0 0.0 -0.0 -0.0 -39.836 0.0 -0.0 -0.0 0.0 0.0 -0.0 0.0 0.0 -51.5202 0.0 -0.0 0.0 0.0 -0.0 -0.0 0.0 -0.0 2.6988336103730877 0.6237745103992887 9.415812920390616 -50.46062542256246 -2.6858567058072023 -50.602313586639845 -25.297656073287524 4.288145692967482 -104.14292969843697 -19.49750869170608 0.33317623282837494 0.2631144371212776 -11.4004 0.4367 -2.1684 -0.0 0.0 51.662 -0.0 0.0 51.662 51.1458 -0.0 -0.0 0.0 -0.0 0.0 -0.0 -0.0 -0.0 54.7253 -0.0 -0.0 0.0 -0.0 0.0 0.0 -0.0 0.0 52.0182 -0.0 -0.0 -0.0 0.0 0.0 0.0 -0.0 0.0 53.1081 0.0 -0.0 -0.0 0.0 -0.0 -0.0 0.0 -0.0 -0.0 -0.0 0.0 -10.7723 -22.4021 0.7241 0.0 71.1458 0.0011 6.4424 -4.2818 -1.0868 0.0 -0.0 0.0 -0.0 -3.537 0.0 -5.7053 -14.9258 11.3918 0.0001 32.3095 -0.0187 4.7164 -11.0815 7.5774 0.0 -0.0 0.0 -0.0 -7.085 0.0
0.0 0.0 0.0 -0.0 0.0 -0.0 -5.186965221318346 7.386550375510327 -0.19062834703765436 -0.7141788475585253 3.0848022191831665 0.38916445173466363 -1.0125046244849991 -0.32666712486335636 -1.8144029936286277 -0.871443643922357 -0.08610821514820449 -1.2954080198916944 -1.2142707001035302 11.807030543380655 1.720876145670391 -0.1652797635727152 -0.4082123138416536 1.0336998041021892 -0.5653490227364406 -14.523357928649206 0.10383972966394306 -1.7163725866065982 0.5079928167676728 -9.765897569599908 54.46494067322067 -25.618970006144647 58.89173455645947 4.537079432371741 3.4005610265958004 106.78308980710189 24.461025963077642 0.48084408753802416 -6.4380897687697365 0.6662 0.2057 17.0925 -0.0 0.0 -33.8039 0.0 -0.0 -33.8039 -34.8611 0.0 -0.0 -0.0 -0.0 -0.0 -0.0 -0.0 -0.0 -39.5292 -0.0 -0.0 0.0001 -0.0 -0.0 0.0 -0.0 -0.0 -39.836 0.0 -0.0 -0.0 0.0 0.0 -0.0 0.0 0.0 -51.5202 0.0 -0.0 0.0 0.0 -0.0 -0.0 0.0 -0.0 5.46288228777498 1.1485817944123322 9.355545863735276 -55.233540506204356 -9.3554472858844 -61.9747169291282 -30.195430215312758 8.281511119317496 -110.46450965834853 -17.80690439790295 0.3727655732503444 -0.8100825628748126 -11.4004 0.4367 -2.1684 -0.0 0.0 51.662 -0.0 0.0 51.662 51.1458 -0.0 -0.0 0.0 -0.0 0.0 -0.0 -0.0 -0.0 54.7253 -0.0 -0.0 0.0 -0.0 0.0 0.0 -0.0 0.0 52.0182 -0.0 -0.0 -0.0 0.0 0.0 0.0 -0.0 0.0 53.1081 0.0 -0.0 -0.0 0.0 -0.0 -0.0 0.0 -0.0 -0.0 -0.0 0.0 -10.7723 -22.4021 0.7241 0.0 71.1458 0.0011 6.4424 -4.2818 -1.0868 0.0 -0.0 0.0 -0.0 -3.537 0.0 -5.7053 -14.9258 11.3918 0.0001 32.3095 -0.0187 4.7164 -11.0815 7.5774 0.0 -0.0 0.0 -0.0 -7.085 0.0
0.0 0.0 0.0 -0.0 0.0 -0.0 -5.177480740557772 7.3512622901812055 -0.18025965199010643 -0.7231209097051594 3.087864067771522 0.38817706608972474 -1.0204629975975694 -0.3683626013573193 -1.9501665935644419 -0.8209230130625054 -0.07512293028814397 -1.3303127890192519 -1.2294756782567642 11.99493960929804 1.616758728732087 -0.17976211634907596 -0.39005470551462695 0.8731398953172457 -0.5609604205205405 -14.545719923978073 0.09329604915644049 -1.9582581913630979 0.5486337625183125 -9.738522573579282 56.46580967073229 -27.702753663983408 60.009592247478565 9.104972386052939 4.393568221978451 106.80122083166941 21.945202197098066 0.4909202205580094 -5.847946957356344 0.6662 0.2057 17.0925 -0.0 0.0 -33.8039 0.0 -0.0 -33.8039 -34.8611 0.0 -0.0 -0.0 -0.0 -0.0 -0.0 -0.0 -0.0 -39.5292 -0.0 -0.0 0.0001 -0.0 -0.0 0.0 -0.0 -0.0 -39.836 0.0 -0.0 -0.0 0.0 0.0 -0.0 0.0 0.0 -51.5202 0.0 -0.0 0.0 0.0 -0.0 -0.0 0.0 -0.0 5.869709548487561 1.2262949961507466 9.296963005294462 -56.51653520303765 -11.117722321178801 -63.76385598032212 -29.538273886868854 8.415298650255565 -111.86334963789183 -14.546268084141952 0.3698323693904602 -1.9771132852702058 -11.4004 0.4367 -2.1684 -0.0 0.0 51.662 -0.0 0.0 51.662 51.1458 -0.0 -0.0 0.0 -0.0 0.0 -0.0 -0.0 -0.0 54.7253 -0.0 -0.0 0.0 -0.0 0.0 0.0 -0.0 0.0 52.0182 -0.0 -0.0 -0.0 0.0 0.0 0.0 -0.0 0.0 53.1081 0.0 -0.0 -0.0 0.0 -0.0 -0.0 0.0 -0.0 -0.0 -0.0 0.0 -10.7723 -22.4021 0.7241 0.0 71.1458 0.0011 6.4424 -4.2818 -1.0868 0.0 -0.0 0.0 -0.0 -3.537 0.0 -5.7053 -14.9258 11.3918 0.0001 32.3095 -0.0187 4.7164 -11.0815 7.5774 0.0 -0.0 0.0 -0.0 -7.085 0.0
0.0 0.0 0.0 -0.0 0.0 -0.0 -5.409907814176771 7.3751184533315 -0.09899766774028596 -0.7394052782093693 3.0750387018345533 0.3897187187187453 -1.0450610918022323 -0.3615698899890861 -1.9820630499744565 -0.7643188242819008 -0.013973093176743752 -1.366853515576536 -1.2098180955046305 11.751424870472457 1.5982346671850973 -0.20005039428304688 -0.3588425697659558 0.5682811696469603 -0.5756719484085212 -14.422455091762826 0.07511135329361548 -1.3363534907224421 0.41491688537359234 -9.610987747204586 54.824142881903605 -26.37775386732676 57.550452613507844 9.847983792555972 4.023562490080605 106.13191734429022 21.51779172090285 0.48916641677721295 -5.813349080533709 0.6662 0.2057 17.0925 -0.0 0.0 -33.8039 0.0 -0.0 -33.8039 -34.8611 0.0 -0.0 -0.0 -0.0 -0.0 -0.0 -0.0 -0.0 -39.5292 -0.0 -0.0 0.0001 -0.0 -0.0 0.0 -0.0 -0.0 -39.836 0.0 -0.0 -0.0 0.0 0.0 -0.0 0.0 0.0 -51.5202 0.0 -0.0 0.0 0.0 -0.0 -0.0 0.0 -0.0 5.337881988307365 1.1243124198430303 9.27785744307905 -55.09172368206873 -10.574718262141657 -61.80238089666267 -26.730090288580087 6.965640040584335 -111.47416037091244 -13.191221920343363 0.3650115408989998 -2.311094046897899 -11.4004 0.4367 -2.1684 -0.0 0.0 51.662 -0.0 0.0 51.662 51.1458 -0.0 -0.0 0.0 -0.0 0.0 -0.0 -0.0 -0.0 54.7253 -0.0 -0.0 0.0 -0.0 0.0 0.0 -0.0 0.0 52.0182 -0.0 -0.0 -0.0 0.0 0.0 0.0 -0.0 0.0 53.1081 0.0 -0.0 -0.0 0.0 -0.0 -0.0 0.0 -0.0 -0.0 -0.0 0.0 -10.7723 -22.4021 0.7241 0.0 71.1458 0.0011 6.4424 -4.2818 -1.0868 0.0 -0.0 0.0 -0.0 -3.537 0.0 -5.7053 -14.9258 11.3918 0.0001 32.3095 -0.0187 4.7164 -11.0815 7.5774 0.0 -0.0 0.0 -0.0 -7.085 0.0
0.0 0.0 0.0 -0.0 0.0 -0.0 -5.731885578008205 7.4313161463511825 0.006142483636546163 -0.7638551697760905 3.0504162380726974 0.39263269469240203 -1.0783949066581624 -0.3296151343233562 -1.9649989774681582 -0.7333186733114807 0.06716383839303373 -1.401715629221597 -1.2045661507663912 11.36110698033453 1.7155346834809948 -0.22181142786754723 -0.303189493300129 0.43642641435688134 -0.6162117137759472 -14.223488897346412 0.07146652614127544 -0.5407436117378509 0.2516324181006536 -9.458969407710166 51.43593051553292 -23.136684381484066 54.27484738129398 6.111015335436785 2.629325771519431 105.15814657871202 22.31246614400966 0.5124909553988934 -5.928196877938093 0.6662 0.2057 17.0925 -0.0 0.0 -33.8039 0.0 -0.0 -33.8039 -34.8611 0.0 -0.0 -0.0 -0.0 -0.0 -0.0 -0.0 -0.0 -39.5292 -0.0 -0.0 0.0001 -0.0 -0.0 0.0 -0.0 -0.0 -39.836 0.0 -0.0 -0.0 0.0 0.0 -0.0 0.0 0.0 -51.5202 0.0 -0.0 0.0 0.0 -0.0 -0.0 0.0 -0.0 4.580755517948566 0.9780126334089916 9.30048213641058 -52.654392114043 -9.185701450426441 -58.8910779054574 -23.140763973356894 5.060213838625508 -110.00260872597563 -12.98019070434563 0.3800191282817521 -2.0315747291351016 -11.4004 0.4367 -2.1684 -0.0 0.0 51.662 -0.0 0.0 51.662 51.1458 -0.0 -0.0 0.0 -0.0 0.0 -0.0 -0.0 -0.0 54.7253 -0.0 -0.0 0.0 -0.0 0.0 0.0 -0.0 0.0 52.0182 -0.0 -0.0 -0.0 0.0 0.0 0.0 -0.0 0.0 53.1081 0.0 -0.0 -0.0 0.0 -0.0 -0.0 0.0 -0.0 -0.0 -0.0 0.0 -10.7723 -22.4021 0.7241 0.0 71.1458 0.0011 6.4424 -4.2818 -1.0868 0.0 -0.0 0.0 -0.0 -3.537 0.0 -5.7053 -14.9258 11.3918 0.0001 32.3095 -0.0187 4.7164 -11.0815 7.5774 0.0 -0.0 0.0 -0.0 -7.085 0.0
